<?xml version="1.0" standalone="no"?>
<!DOCTYPE svg PUBLIC "-//W3C//DTD SVG 20010904//EN"
 "http://www.w3.org/TR/2001/REC-SVG-20010904/DTD/svg10.dtd">
<svg version="1.0" xmlns="http://www.w3.org/2000/svg"
 width="1350.000000pt" height="690.000000pt" viewBox="0 0 1350.000000 690.000000"
 preserveAspectRatio="xMidYMid meet">
<metadata>
Created by potrace 1.10, written by Peter Selinger 2001-2011
</metadata>
<g transform="translate(0.000000,690.000000) scale(0.100000,-0.100000)"
fill="#000000" stroke="none">
<path d="M7718 6355 c-2 -3 -669 -5 -1482 -5 l-1477 0 -38 -22 c-21 -12 -47
-36 -59 -55 l-22 -33 0 -1336 c0 -1324 0 -1336 20 -1364 11 -16 35 -38 54 -49
33 -21 40 -21 862 -20 1077 2 2187 15 2244 25 62 12 104 37 129 77 21 34 21
42 21 651 l0 616 58 46 c31 25 64 48 72 51 8 3 22 11 30 18 27 22 59 23 142 4
46 -10 114 -19 152 -19 38 0 109 -5 158 -11 78 -10 91 -10 106 5 25 21 86 172
78 191 -3 9 -23 23 -43 32 -79 35 -468 25 -534 -13 -13 -7 -34 -18 -47 -23
-13 -6 -53 -40 -89 -75 -37 -36 -70 -63 -75 -60 -4 3 -8 77 -8 165 0 158 0
161 -27 195 -49 65 -28 64 -690 54 -329 -5 -754 -9 -944 -10 -307 0 -348 -2
-353 -16 -10 -26 -7 -231 4 -260 l11 -27 774 5 c426 3 779 2 784 -2 7 -4 11
-206 11 -614 0 -335 -1 -610 -2 -611 -2 -2 -561 -8 -1242 -14 -914 -8 -1243
-8 -1253 0 -19 16 -20 2094 0 2106 6 4 652 12 1435 18 l1423 10 19 25 c17 23
19 37 13 150 -7 150 -18 185 -63 194 -38 7 -144 8 -152 1z"/>
<path d="M2347 6320 l-1149 -5 -20 -25 c-19 -23 -20 -34 -14 -154 8 -142 20
-182 63 -192 14 -4 603 -2 1307 4 705 6 1285 7 1289 3 8 -8 -35 -31 -123 -65
-25 -10 -58 -24 -75 -31 -16 -7 -50 -20 -75 -30 -25 -10 -58 -23 -75 -30 -16
-7 -50 -21 -75 -30 -25 -10 -58 -23 -75 -30 -16 -8 -65 -27 -107 -44 -43 -17
-113 -45 -155 -62 -43 -17 -91 -36 -108 -44 -16 -7 -48 -19 -70 -28 -51 -19
-191 -75 -230 -92 -16 -7 -50 -21 -75 -30 -25 -10 -58 -23 -75 -30 -16 -7 -50
-21 -75 -30 -25 -10 -58 -23 -75 -30 -16 -7 -50 -21 -75 -30 -25 -10 -58 -23
-75 -30 -16 -8 -65 -27 -107 -44 -245 -98 -371 -148 -413 -166 -16 -7 -50 -21
-75 -30 -25 -10 -58 -23 -75 -30 -16 -7 -50 -21 -75 -30 -25 -10 -58 -23 -75
-30 -140 -58 -140 -58 -226 30 -41 43 -104 97 -140 120 l-65 43 -170 7 c-209
9 -335 1 -366 -25 -24 -19 -23 -35 14 -130 29 -78 43 -90 106 -90 84 0 382 36
418 51 29 12 35 10 102 -35 39 -26 88 -63 109 -81 l38 -33 5 -650 5 -651 35
-37 35 -36 1518 5 c1368 5 1521 7 1543 21 24 16 24 19 24 164 0 147 0 149 -26
173 l-26 24 -1336 0 -1337 0 -3 380 c-1 209 0 390 3 402 3 12 15 25 28 28 12
3 56 20 97 37 41 16 109 44 150 60 180 72 227 91 255 103 17 7 50 21 75 30 25
10 59 23 75 30 35 15 172 70 230 92 22 9 54 21 70 28 17 8 66 28 110 45 44 18
113 45 153 61 137 55 227 91 257 104 17 7 50 21 75 30 25 10 59 23 75 30 17 7
50 21 75 30 25 10 59 23 75 30 17 7 50 21 75 30 25 10 59 23 75 30 29 13 109
45 265 107 41 16 89 35 105 43 17 7 50 20 75 30 25 9 57 23 72 31 14 8 33 14
41 14 7 0 30 16 50 35 l37 36 0 274 c0 191 -4 282 -12 300 -24 53 -38 55 -400
53 -183 -2 -850 -5 -1481 -8z"/>
<path d="M12100 5839 c-73 -51 -84 -72 -85 -160 0 -68 3 -79 28 -113 46 -59
97 -86 165 -86 80 0 139 37 176 111 30 61 33 101 10 155 -34 83 -96 124 -187
124 -54 0 -69 -4 -107 -31z"/>
<path d="M10345 5828 c-3 -7 -4 -519 -3 -1138 l3 -1125 175 0 175 0 1 105 c2
139 3 140 13 140 5 0 21 -20 35 -44 52 -89 173 -176 301 -217 86 -28 288 -28
377 0 179 56 305 167 393 346 69 141 91 235 101 443 20 380 -115 686 -368 837
-33 19 -65 35 -72 35 -8 0 -31 8 -52 17 -32 14 -68 17 -194 17 -144 -1 -160
-3 -219 -27 -35 -15 -82 -38 -106 -51 -47 -28 -175 -161 -175 -182 0 -21 -30
-17 -30 4 -1 9 0 197 0 418 0 220 -2 408 -6 417 -5 15 -26 17 -175 17 -127 0
-171 -3 -174 -12z m888 -882 c206 -50 337 -265 337 -556 0 -79 -4 -109 -29
-230 -13 -61 -68 -165 -116 -218 -29 -32 -70 -62 -113 -84 -65 -32 -71 -33
-182 -32 -106 1 -119 3 -169 29 -122 63 -189 151 -246 322 -24 74 -24 336 0
419 77 266 283 406 518 350z"/>
<path d="M9330 5241 c-97 -12 -229 -68 -317 -134 -54 -40 -118 -117 -147 -177
-23 -46 -58 -178 -51 -191 4 -5 74 -9 160 -9 l154 0 24 53 c13 28 37 66 53 83
107 114 352 139 495 48 42 -26 92 -93 104 -139 4 -16 8 -73 9 -125 l1 -95
-145 -12 c-80 -6 -199 -14 -265 -17 -347 -19 -565 -139 -638 -351 -12 -34 -17
-82 -17 -150 0 -175 60 -296 194 -393 58 -43 86 -56 171 -83 79 -25 278 -27
351 -3 112 36 177 77 261 161 46 46 85 83 88 83 2 0 6 -51 7 -112 l3 -113 168
-3 167 -2 0 622 c0 588 -1 626 -20 685 -54 173 -177 286 -385 354 -46 15 -96
21 -215 24 -85 2 -180 0 -210 -4z m474 -937 c33 -13 15 -223 -26 -295 -24 -43
-112 -130 -153 -151 -151 -75 -310 -77 -432 -6 -44 26 -78 74 -92 132 -30 122
41 234 176 274 39 12 97 22 130 23 32 0 117 6 188 14 159 15 189 17 209 9z"/>
<path d="M12041 5207 c-8 -11 -10 -227 -9 -828 l3 -814 173 -3 172 -2 -2 827
-3 828 -161 3 c-128 2 -164 0 -173 -11z"/>
<path d="M2614 4461 c-35 -34 -144 -246 -144 -279 0 -27 42 -69 73 -74 12 -2
192 -1 399 2 338 4 379 7 397 22 36 30 36 61 0 130 -18 35 -46 89 -62 121 -17
32 -43 69 -59 82 l-30 25 -272 0 -272 0 -30 -29z"/>
<path d="M5989 4473 c-15 -9 -42 -46 -60 -82 -18 -36 -46 -87 -60 -113 -26
-43 -34 -78 -31 -120 1 -10 16 -25 32 -33 26 -14 85 -16 417 -15 417 0 420 1
444 54 11 23 -16 88 -96 231 -56 100 -37 95 -349 95 -233 0 -275 -3 -297 -17z"/>
<path d="M1780 4462 c-34 -28 -29 -74 16 -139 46 -66 88 -104 156 -138 46 -23
71 -28 193 -35 122 -8 144 -6 175 8 51 25 52 65 5 137 -92 138 -198 185 -414
185 -91 0 -113 -3 -131 -18z"/>
<path d="M3750 4466 c-25 -7 -61 -20 -81 -29 -92 -41 -200 -182 -185 -241 12
-47 50 -55 211 -46 130 8 144 11 200 40 74 39 88 52 134 115 67 91 73 137 21
165 -25 14 -244 11 -300 -4z"/>
<path d="M5143 4463 c-56 -39 -3 -151 112 -238 73 -56 110 -67 254 -75 174
-10 205 -2 209 58 3 37 -3 50 -42 101 -70 91 -143 141 -234 160 -82 17 -272
14 -299 -6z"/>
<path d="M7115 4466 c-90 -23 -162 -72 -221 -151 -67 -89 -66 -142 1 -163 52
-15 290 1 340 24 60 28 122 78 158 126 72 97 76 137 20 167 -29 15 -234 13
-298 -3z"/>
<path d="M6865 3091 c-54 -25 -89 -66 -111 -128 -16 -46 -17 -57 -5 -90 37
-107 97 -153 200 -153 59 0 73 4 107 29 76 55 103 130 78 218 -34 116 -160
174 -269 124z"/>
<path d="M10380 2892 c-6 -2 -10 -83 -10 -212 0 -169 -3 -210 -15 -220 -9 -7
-47 -11 -107 -10 -51 1 -99 1 -106 1 -10 -1 -12 -31 -10 -133 l3 -133 115 -5
115 -5 5 -545 c4 -421 8 -557 19 -596 30 -111 131 -212 250 -249 64 -20 283
-32 346 -18 l40 9 0 128 0 128 -96 3 c-110 3 -146 18 -182 75 -22 35 -22 38
-22 550 l0 515 150 5 150 5 3 133 c2 102 0 132 -10 133 -7 0 -71 0 -141 -1
-85 -1 -134 3 -143 11 -11 9 -14 52 -14 216 0 158 -3 205 -13 209 -15 5 -312
11 -327 6z"/>
<path d="M4965 2480 c-125 -15 -245 -89 -326 -201 l-44 -61 -3 108 c-1 60 -6
112 -11 117 -8 8 -319 12 -327 4 -7 -6 -5 -1637 1 -1648 10 -15 311 -11 323 4
8 9 12 185 14 563 3 600 2 586 63 675 38 54 69 84 123 116 44 26 54 28 157 27
90 0 116 -4 145 -20 73 -41 92 -59 128 -123 l37 -66 3 -585 c3 -436 6 -587 15
-592 16 -10 298 -10 314 0 9 5 12 151 15 572 l3 565 33 67 c35 70 86 123 157
161 34 19 56 22 150 21 94 0 116 -3 150 -22 58 -32 79 -52 111 -102 50 -82 53
-119 54 -706 0 -449 2 -544 14 -553 9 -8 63 -11 167 -9 l154 3 3 629 c2 596 1
631 -17 690 -57 181 -158 287 -335 348 -81 28 -276 30 -357 3 -136 -45 -237
-120 -305 -227 -25 -38 -48 -67 -52 -64 -5 3 -17 24 -27 48 -84 191 -283 288
-530 258z"/>
<path d="M7895 2480 c-137 -13 -240 -56 -364 -150 -39 -30 -71 -57 -71 -60 0
-3 -13 -20 -30 -38 -41 -45 -105 -156 -128 -222 -42 -119 -51 -160 -62 -280
-9 -102 -8 -148 4 -250 9 -69 22 -148 30 -175 34 -122 126 -279 201 -346 104
-92 151 -119 280 -165 76 -27 88 -28 255 -28 183 0 230 8 345 56 71 29 173 99
226 155 50 52 127 172 135 213 3 14 10 35 15 48 5 13 7 28 4 33 -4 5 -75 9
-159 9 -135 0 -155 -2 -169 -18 -10 -10 -17 -26 -17 -34 0 -22 -89 -111 -131
-132 -77 -39 -148 -56 -233 -56 -221 0 -372 123 -431 350 -9 36 -15 81 -13
100 l3 35 575 3 c339 1 578 6 584 12 15 15 8 277 -10 355 -16 68 -68 207 -87
233 -5 7 -17 26 -26 42 -9 16 -38 54 -64 85 -151 174 -384 253 -662 225z m227
-290 c35 -11 85 -34 112 -51 61 -41 156 -170 156 -214 0 -9 7 -38 16 -66 27
-83 49 -79 -406 -79 -323 0 -400 3 -409 14 -22 27 52 214 112 283 98 112 272
159 419 113z"/>
<path d="M9355 2481 c-132 -14 -254 -60 -344 -131 -53 -42 -141 -150 -141
-173 0 -8 -7 -29 -16 -46 -12 -24 -16 -62 -17 -145 0 -109 1 -115 36 -187 34
-71 77 -120 142 -165 40 -27 161 -84 180 -84 8 0 29 -6 47 -14 18 -8 69 -21
113 -31 44 -9 102 -23 129 -31 26 -8 56 -14 65 -14 22 0 134 -36 163 -52 34
-19 77 -65 88 -94 16 -42 11 -115 -10 -160 -48 -98 -207 -150 -381 -124 -81
11 -116 25 -175 67 -38 27 -94 111 -94 140 0 39 -20 44 -186 41 l-159 -3 1
-25 c10 -197 184 -392 407 -456 150 -44 405 -44 552 -2 119 35 214 93 294 180
50 55 65 81 92 157 36 102 19 305 -30 354 -6 6 -11 16 -11 23 0 17 -84 89
-144 123 -72 41 -191 83 -289 101 -26 5 -62 13 -80 19 -40 12 -119 31 -174 42
-58 11 -163 62 -189 91 -12 12 -29 44 -39 70 -17 45 -17 50 0 100 20 63 63
112 125 140 64 30 255 32 320 4 83 -36 170 -142 170 -207 0 -18 10 -19 159
-19 94 0 162 4 166 10 13 21 -31 158 -81 251 -17 32 -137 147 -168 160 -11 5
-28 13 -36 18 -108 61 -302 90 -485 72z"/>
<path d="M11715 2481 c-165 -14 -349 -101 -451 -214 -154 -170 -226 -371 -227
-637 -3 -437 199 -741 563 -846 99 -29 378 -26 474 4 127 41 224 98 308 182
58 59 148 187 148 212 0 7 6 22 13 33 40 62 77 260 77 410 0 256 -79 481 -222
636 -76 83 -224 168 -353 201 -73 20 -221 28 -330 19z m227 -297 c80 -21 159
-73 208 -138 44 -59 64 -103 92 -201 26 -94 28 -354 3 -442 -78 -270 -289
-410 -521 -345 -86 24 -134 53 -195 118 -54 59 -95 142 -120 244 -35 141 -19
414 29 506 5 10 18 37 28 58 26 53 121 150 170 172 102 46 200 55 306 28z"/>
<path d="M6925 2450 l-150 -5 -5 -905 c-5 -834 -6 -907 -22 -937 -29 -53 -69
-74 -152 -80 -41 -3 -80 -9 -86 -13 -13 -8 -18 -248 -6 -268 10 -17 163 -15
222 3 27 8 61 15 75 15 14 0 34 7 45 15 10 8 24 15 31 15 18 0 94 54 130 92
48 50 89 151 102 254 9 63 11 336 9 948 -3 849 -3 859 -23 865 -11 3 -87 4
-170 1z"/>
</g>
</svg>
