<?xml version="1.0" encoding="UTF-8" standalone="no"?>
<svg
   width="512"
   height="512"
   viewBox="0 0 512 512"
   version="1.1"
   id="svg1"
   inkscape:version="1.3 (1:1.3+202307231459+0e150ed6c4)"
   sodipodi:docname="ZG_logo.svg"
   xmlns:inkscape="http://www.inkscape.org/namespaces/inkscape"
   xmlns:sodipodi="http://sodipodi.sourceforge.net/DTD/sodipodi-0.dtd"
   xmlns="http://www.w3.org/2000/svg"
   xmlns:svg="http://www.w3.org/2000/svg">
  <sodipodi:namedview
     id="namedview1"
     pagecolor="#ffffff"
     bordercolor="#000000"
     borderopacity="0.25"
     inkscape:showpageshadow="2"
     inkscape:pageopacity="0.0"
     inkscape:pagecheckerboard="0"
     inkscape:deskcolor="#d1d1d1"
     inkscape:document-units="px"
     inkscape:zoom="1.0841383"
     inkscape:cx="215.83962"
     inkscape:cy="332.52214"
     inkscape:window-width="1848"
     inkscape:window-height="1009"
     inkscape:window-x="72"
     inkscape:window-y="34"
     inkscape:window-maximized="1"
     inkscape:current-layer="layer1" />
  <defs
     id="defs1" />
  <g
     inkscape:label="Layer 1"
     inkscape:groupmode="layer"
     id="layer1">
    <g
       id="g1"
       transform="matrix(1.5972795,0,0,1.5972795,-148.53615,-202.50332)">
      <rect
         style="fill:#000000;fill-opacity:1;stroke:#000000;stroke-width:8.36564;stroke-linecap:round;stroke-linejoin:round;stroke-dasharray:none;stroke-opacity:1;paint-order:fill markers stroke"
         id="rect377"
         width="5.2508631"
         height="38.644661"
         x="150.81071"
         y="290.27783" />
      <rect
         style="fill:#000000;fill-opacity:1;stroke:#000000;stroke-width:3.86317;stroke-linejoin:round;stroke-dasharray:none;stroke-opacity:1;paint-order:fill markers stroke"
         id="rect384"
         width="94.93866"
         height="7.9626412"
         x="138.58791"
         y="323.75565"
         transform="matrix(0.99999615,-0.00277442,0.03388368,0.99942578,0,0)" />
      <rect
         style="fill:#000000;fill-opacity:1;stroke-width:4.9494;stroke-dasharray:none;paint-order:fill markers stroke"
         id="rect385"
         width="89.382584"
         height="13.87158"
         x="-107.54743"
         y="349.58707"
         transform="matrix(0.92776383,-0.37316788,0.7073655,0.70684797,0,0)" />
      <rect
         style="fill:#000000;fill-opacity:1;stroke:#000000;stroke-width:5.88363;stroke-linecap:round;stroke-linejoin:round;stroke-dasharray:none;stroke-opacity:1;paint-order:fill markers stroke"
         id="rect6"
         width="6.2763848"
         height="15.991994"
         x="233.22667"
         y="244.76797" />
      <rect
         style="fill:#000000;fill-opacity:1;stroke:#000000;stroke-width:3.7878;stroke-linejoin:round;stroke-dasharray:none;stroke-opacity:1;paint-order:fill markers stroke"
         id="rect7"
         width="90.612534"
         height="8.0204821"
         x="138.79816"
         y="245.07556"
         transform="matrix(0.99998603,-0.00528645,0.03422234,0.99941424,0,0)" />
      <rect
         style="fill:#000000;fill-opacity:1;stroke:#000000;stroke-width:9.37538;stroke-linecap:round;stroke-linejoin:round;stroke-dasharray:none;stroke-opacity:1;paint-order:fill markers stroke"
         id="rect18"
         width="3.1325631"
         height="81.357956"
         x="259.65424"
         y="246.12402" />
      <rect
         style="fill:#000000;fill-opacity:1;stroke:#000000;stroke-width:3.80768;stroke-linejoin:round;stroke-dasharray:none;stroke-opacity:1;paint-order:fill markers stroke"
         id="rect20"
         width="93.158379"
         height="7.8832655"
         x="248.74037"
         y="323.84283"
         transform="matrix(0.99998723,-0.00505373,0.0357963,0.99935911,0,0)" />
      <path
         style="fill:#000000;stroke-width:0.631869"
         d="m 357.87428,287.6994 5.56679,-6.09525 4.12736,-2.74011 c 0,0 19.80457,-2.29463 17.82376,1.93308 -1.98066,4.22769 -1.64776,5.97343 -4.38671,5.47902 -2.73997,-0.49452 -12.19703,-0.64388 -13.33342,-1.74504 -1.13635,-1.10118 -7.89456,4.78974 -7.89456,4.78974 z"
         id="path23" />
      <rect
         style="fill:#000000;fill-opacity:1;stroke:#000000;stroke-width:3.91087;stroke-linejoin:round;stroke-dasharray:none;stroke-opacity:1;paint-order:fill markers stroke"
         id="rect25"
         width="97.592216"
         height="7.9385366"
         x="250.12074"
         y="244.81299"
         transform="matrix(0.9999882,-0.0048577,0.03723896,0.99930639,0,0)" />
      <rect
         style="fill:#000000;fill-opacity:1;stroke:#000000;stroke-width:8.9695;stroke-linecap:round;stroke-linejoin:round;stroke-dasharray:none;stroke-opacity:1;paint-order:fill markers stroke"
         id="rect26"
         width="4.5591984"
         height="51.164402"
         x="351.20709"
         y="275.47241" />
      <rect
         style="fill:#000000;fill-opacity:1;stroke:#000000;stroke-width:2.71819;stroke-linejoin:round;stroke-dasharray:none;stroke-opacity:1;paint-order:fill markers stroke"
         id="rect61"
         width="55.195755"
         height="6.7805157"
         x="290.87933"
         y="275.05728"
         transform="matrix(0.99997307,-0.00733889,0.02465807,0.99969594,0,0)" />
      <g
         id="g84"
         transform="matrix(3.7795276,0,0,3.7795276,-313.20118,-75.222985)">
        <g
           id="g82"
           transform="matrix(0.94082672,0,0,0.81656368,1.433165,4.9493599)">
          <g
             id="g83">
            <path
               id="rect382"
               style="stroke:#000000;stroke-width:1.59727;stroke-linecap:round;stroke-linejoin:round;stroke-dasharray:none;stroke-opacity:1;paint-order:fill markers stroke"
               d="m 140.8379,116.31735 c 0,0 3.55606,1.1e-4 4.31603,0 l 1.05833,2.30073 h -6.43269 z"
               sodipodi:nodetypes="ccccc" />
          </g>
        </g>
        <rect
           style="fill:#000000;stroke:#000000;stroke-width:2.7966;stroke-linejoin:round;stroke-dasharray:none;stroke-opacity:1;paint-order:fill markers stroke"
           id="rect60"
           width="1.5276809"
           height="0.57681698"
           x="58.530621"
           y="120.64502"
           transform="matrix(0.99954911,0.0300262,0.57469438,0.81836811,0,0)" />
        <rect
           style="fill:#000000;stroke:#000000;stroke-width:2.7966;stroke-linejoin:round;stroke-dasharray:none;stroke-opacity:1;paint-order:fill markers stroke"
           id="rect83"
           width="1.5276809"
           height="0.57681698"
           x="-219.41299"
           y="130.84286"
           transform="matrix(-0.99954911,0.0300262,-0.57469438,0.81836811,0,0)" />
      </g>
      <g
         id="g87"
         transform="matrix(3.7795276,0,0,3.7795276,-206.94338,-75.222985)">
        <g
           id="g86"
           transform="matrix(0.94082672,0,0,0.81656368,1.433165,4.9493599)">
          <g
             id="g85">
            <path
               id="path84"
               style="stroke:#000000;stroke-width:1.59727;stroke-linecap:round;stroke-linejoin:round;stroke-dasharray:none;stroke-opacity:1;paint-order:fill markers stroke"
               d="m 140.8379,116.31735 c 0,0 3.55606,1.1e-4 4.31603,0 l 1.05833,2.30073 h -6.43269 z"
               sodipodi:nodetypes="ccccc" />
          </g>
        </g>
        <rect
           style="fill:#000000;stroke:#000000;stroke-width:2.7966;stroke-linejoin:round;stroke-dasharray:none;stroke-opacity:1;paint-order:fill markers stroke"
           id="rect86"
           width="1.5276809"
           height="0.57681698"
           x="58.530621"
           y="120.64502"
           transform="matrix(0.99954911,0.0300262,0.57469438,0.81836811,0,0)" />
        <rect
           style="fill:#000000;stroke:#000000;stroke-width:2.7966;stroke-linejoin:round;stroke-dasharray:none;stroke-opacity:1;paint-order:fill markers stroke"
           id="rect87"
           width="1.5276809"
           height="0.57681698"
           x="-219.41299"
           y="130.84286"
           transform="matrix(-0.99954911,0.0300262,-0.57469438,0.81836811,0,0)" />
      </g>
      <path
         style="fill:#000000;stroke-width:0.631869"
         d="m 148.65717,288.16508 -5.56679,-6.09525 -4.12736,-2.74011 c 0,0 -19.80457,-2.29463 -17.82376,1.93308 1.98066,4.22769 1.64776,5.97343 4.38671,5.47902 2.73997,-0.49452 12.19702,-0.64388 13.33342,-1.74504 1.13635,-1.10118 7.89456,4.78974 7.89456,4.78974 z"
         id="path87" />
    </g>
  </g>
</svg>
